<svg xmlns="http://www.w3.org/2000/svg" viewBox="0 0 32 32">
    <path d="M0 0H32V32H0z"/>
    <defs>
        <path id="a" d="M 9.392 20.662 Q 10.292 20.662 11.132 20.317 Q 11.972 19.972 12.932 19.312 L 15.032 22.312 Q 13.892 23.272 12.392 23.842 Q 10.892 24.412 9.122 24.412 Q 6.572 24.412 4.727 23.362 Q 2.882 22.312 1.892 20.422 Q 0.902 18.532 0.902 16.042 Q 0.902 13.552 1.922 11.602 Q 2.942 9.652 4.817 8.542 Q 6.692 7.432 9.212 7.432 Q 10.982 7.432 12.392 7.927 Q 13.802 8.422 15.032 9.442 L 12.992 12.292 Q 11.252 11.092 9.422 11.092 Q 5.852 11.092 5.852 16.042 Q 5.852 18.532 6.782 19.597 Q 7.712 20.662 9.392 20.662 Z"/>
    </defs>
    <use fill="#fff" href="#a"/>
    <use fill="#ff69b4" href="#a" transform="translate(16)"/>
</svg>
